<svg id="Layer_1" data-name="Layer 1" xmlns="http://www.w3.org/2000/svg" viewBox="0 0 1080 1080"><path d="M374.11,533.27l45,69.17V533.27H430v85.21H417.31l-44.76-68.34v68.34H361.78V533.27Z" style="fill:#fff"/><path d="M472.73,620.51q-13.64,0-21.36-8.49t-7.72-23.58q0-15,8-24.23t20.76-9.28q14.25,0,21.13,9.63t6.88,24.36v1.44H453.94l-.12.71q0,9.82,5.15,15.44t14.12,5.63q6.71,0,10.59-3.11T489.73,599h9.93Q495,620.51,472.73,620.51Zm11.73-52.24q-4.66-5-12.32-5a16.51,16.51,0,0,0-12.33,5q-4.9,5-5.87,13.77h35.91Q489.13,573.24,484.46,568.27Z" style="fill:#fff"/><path d="M543.35,565.82a24.4,24.4,0,0,0-2.63-.12,21.93,21.93,0,0,0-8.5,1.5,15.07,15.07,0,0,0-5.69,3.89,18.93,18.93,0,0,0-3.41,6,31.8,31.8,0,0,0-1.73,7.18,70.67,70.67,0,0,0-.42,8.14v26.09H510.8V556.73h9.69V570q6.1-14.71,22.86-14.72Z" style="fill:#fff"/><path d="M597.69,563.43q7.77,8.49,7.78,23.81,0,15.69-7.78,24.42t-21.9,8.74q-14.13,0-22.14-8.62t-8-23.94q0-15.2,8.14-24.05t22.14-8.86Q589.91,554.93,597.69,563.43ZM561.43,570q-5.26,6.59-5.27,17.59,0,11.37,5.21,17.77t14.54,6.41q9,0,14.06-6.47t5.09-17.83q0-11-5.21-17.53t-14.18-6.52Q566.68,563.43,561.43,570Z" style="fill:#fff"/><path d="M665.91,558.4q-1.32-15-18.55-15c-5.11,0-9.09,1.06-12,3.17a10.21,10.21,0,0,0-4.31,8.68q0,5.15,3.18,7.06T648.32,567c1.91.56,3.39,1,4.43,1.19q14.24,3.6,19.38,6.47,11.37,6.11,11.37,19a25.89,25.89,0,0,1-1.91,10.17,22.11,22.11,0,0,1-5.15,7.6,27.94,27.94,0,0,1-7.66,5.08,39.24,39.24,0,0,1-9.21,2.94,53.62,53.62,0,0,1-9.93.9q-16,0-26-7.66t-9.93-22.5h14.72q0,9.33,6.11,13.82t15.91,4.49q8.63,0,13.47-3.53a11.53,11.53,0,0,0,4.84-9.88,9,9,0,0,0-2.57-6.64,15.19,15.19,0,0,0-5.56-3.65q-3-1.08-10.42-3l-1.31-.36Q633,577.43,628,574.8q-10.41-5.38-11.13-16.64v-1.67q0-11.37,8.56-18.13t22.92-6.77q13.88,0,22.62,6.58t9.21,20.23Z" style="fill:#fff"/><path d="M707.69,565q6.22-10.05,20.1-10.05,12.81,0,20.47,9t7.66,23.93q0,14.61-7.48,23.4T728.51,620q-13.15,0-20.1-9.7v31H694.88V556.73h12.81Zm4.78,6.71q-4.54,5.74-4.54,15.91t4.6,15.8q4.62,5.75,12.75,5.74a14.88,14.88,0,0,0,12.33-5.74q4.54-5.74,4.54-15.56,0-10.05-4.6-16A15,15,0,0,0,725,565.94Q717,565.94,712.47,571.69Z" style="fill:#fff"/><path d="M794.22,554.81q11.61,0,18.49,4.55t6.88,14.12v31.36a6.84,6.84,0,0,0,.66,3.59,2.94,2.94,0,0,0,2.58,1,22.13,22.13,0,0,0,3.11-.24v9.58a37.65,37.65,0,0,1-8.86,1.32q-8.73,0-10.05-7.42Q799.25,620,785.37,620q-9.58,0-15.2-5t-5.63-13.46a19.15,19.15,0,0,1,.6-4.91,23.76,23.76,0,0,1,1.38-4,8.78,8.78,0,0,1,2.51-3.11c1.16-1,2.11-1.76,2.87-2.4a11.71,11.71,0,0,1,3.71-1.79l3.83-1.26a30.48,30.48,0,0,1,4.37-.9c2.07-.31,3.45-.53,4.13-.65s2.09-.3,4.25-.54q7.29-1,9.93-1.62a6.11,6.11,0,0,0,3.59-2c.56-.64.84-2.12.84-4.43q0-9.33-12.69-9.34-6.71,0-9.81,2.52t-3.95,8.49H767.17Q769.33,554.81,794.22,554.81ZM802.84,589a21.14,21.14,0,0,1-3.29.84l-3.95.54-3.53.47c-1.68.24-3,.46-4,.66a29.8,29.8,0,0,0-3.53,1,9.27,9.27,0,0,0-3.23,1.74,8.58,8.58,0,0,0-2,2.75,9.36,9.36,0,0,0-.84,4.13,8.3,8.3,0,0,0,2.94,6.82q2.92,2.38,8.19,2.39,9.11,0,14-4.91,2.75-2.74,2.75-10.65v-7.3A21.91,21.91,0,0,1,802.84,589Z" style="fill:#fff"/><path d="M881.24,613.27Q873.58,620,862,620q-13.89,0-22.14-8.8t-8.26-23q0-15.32,8.32-24.35t22.44-9q11.85,0,19.09,6t8.43,16.64H876.33a15.56,15.56,0,0,0-4.79-9,13.39,13.39,0,0,0-9.09-3.11A14.84,14.84,0,0,0,850,571.27q-4.54,5.93-4.55,16.21t4.37,16q4.36,5.75,12.15,5.74a14,14,0,0,0,10-3.65q3.88-3.65,5-10.47h13.4Q888.89,606.51,881.24,613.27Z" style="fill:#fff"/><path d="M946.29,614.89a29.63,29.63,0,0,1-18.13,5.62q-14,0-22.2-9t-8.2-23.16q0-14.48,8.44-23.94a27.51,27.51,0,0,1,21.48-9.45q13.52,0,21.42,9.28t7.9,25.31V591H911.4q.24,9.34,4.67,14.42t12.33,5.09a14.69,14.69,0,0,0,9.15-2.69q3.54-2.7,5.57-8.56h13A25.81,25.81,0,0,1,946.29,614.89Zm-7.78-45.3a15.68,15.68,0,0,0-21.78-.18q-4.12,4.3-5.09,12.45h31.72Q942.76,574.07,938.51,569.59Z" style="fill:#fff"/><polygon points="214.55 532.82 194.74 598.02 160.22 616.44 152.65 580.76 214.55 532.82" style="fill:#fff"/><polygon points="221.22 581.61 269.41 629.8 269.41 668.92 234.37 658.8 221.22 581.61" style="fill:#fff"/><polygon points="261.9 593.72 257.75 525.71 228.44 499.79 212.8 532.74 261.9 593.72" style="fill:#fff"/><polygon points="268.3 631.14 328.41 599.05 339.79 561.62 303.32 561.11 268.3 631.14" style="fill:#fff"/></svg>